<?xml version="1.0" standalone="no"?>
<!DOCTYPE svg PUBLIC "-//W3C//DTD SVG 20010904//EN"
 "http://www.w3.org/TR/2001/REC-SVG-20010904/DTD/svg10.dtd">
<svg version="1.0" xmlns="http://www.w3.org/2000/svg"
 width="832.000000pt" height="276.000000pt" viewBox="0 0 832.000000 276.000000"
 preserveAspectRatio="xMidYMid meet">
<metadata>
Created by potrace 1.15, written by Peter Selinger 2001-2017
</metadata>
<g transform="translate(0.000000,276.000000) scale(0.100000,-0.100000)"
fill="#000000" stroke="none">
<path d="M1660 2659 c-157 -18 -345 -87 -497 -181 -115 -71 -282 -235 -356
-349 -80 -122 -138 -246 -131 -278 5 -21 3 -23 -6 -11 -10 13 -11 12 -6 -4 4
-10 -1 -45 -10 -78 -9 -32 -14 -61 -12 -64 3 -3 14 25 23 61 12 45 21 62 27
53 5 -8 6 -2 2 16 -5 19 -3 27 4 22 6 -4 8 2 5 16 -4 19 -3 20 7 8 10 -12 11
-11 7 8 -3 13 -3 21 0 18 4 -3 25 29 49 73 68 128 122 200 220 298 185 182
369 275 649 328 235 44 560 -32 792 -185 346 -229 548 -658 505 -1074 -13
-125 -30 -209 -60 -296 -30 -88 -107 -232 -160 -302 -65 -86 -72 -99 -34 -64
43 40 40 24 -7 -39 -44 -59 -134 -139 -233 -209 -74 -52 -90 -71 -30 -36 267
157 459 421 544 747 27 104 31 140 35 296 4 125 9 175 16 168 6 -6 10 -65 10
-148 -2 -284 -65 -497 -218 -735 -24 -36 -41 -69 -38 -72 8 -8 -38 -57 -47
-51 -4 2 -20 -10 -36 -28 -16 -18 -19 -24 -6 -13 28 24 29 10 0 -21 -12 -13
-19 -23 -15 -23 9 0 157 171 157 182 0 5 -5 6 -12 2 -7 -4 -8 -3 -4 5 4 6 11
9 16 6 4 -3 27 27 50 65 117 194 189 484 176 709 -28 453 -241 798 -636 1031
-81 48 -200 92 -228 85 -17 -4 -22 -2 -16 6 4 7 3 9 -4 5 -6 -3 -27 3 -46 14
-20 11 -43 17 -51 14 -8 -4 -15 -1 -15 6 0 9 -11 10 -36 5 -21 -3 -34 -2 -30
3 12 19 -180 26 -314 11z"/>
<path d="M1772 1872 c-39 -53 -130 -244 -148 -308 -10 -35 -23 -64 -29 -64 -5
0 -18 19 -28 43 -9 23 -28 55 -41 71 l-23 30 -27 -29 c-15 -17 -42 -60 -59
-97 -18 -37 -34 -68 -37 -68 -3 0 -31 31 -61 68 -31 38 -92 100 -137 139 -151
134 -158 126 -92 -97 27 -91 74 -250 105 -355 30 -104 59 -193 64 -198 4 -4
77 -17 162 -29 210 -27 556 -29 754 -4 150 20 183 28 190 48 2 7 31 110 65
228 34 118 79 273 101 345 56 188 36 194 -136 41 -37 -33 -90 -88 -117 -123
l-51 -64 -33 68 c-18 38 -45 81 -59 97 -32 35 -44 27 -86 -56 -16 -32 -31 -58
-33 -58 -3 0 -12 26 -21 58 -21 70 -126 280 -160 316 -30 33 -39 33 -63 -2z
m97 -142 c56 -106 94 -210 106 -281 10 -68 15 -79 34 -79 13 0 21 10 25 32 8
39 66 168 76 168 13 0 59 -96 73 -151 18 -67 41 -72 73 -16 46 82 209 254 233
245 4 -2 -23 -109 -60 -238 -38 -129 -76 -264 -86 -299 -12 -44 -24 -66 -38
-71 -11 -4 -92 -15 -180 -25 -188 -21 -540 -16 -715 9 -58 9 -108 16 -112 16
-7 0 -43 113 -122 385 -30 105 -57 198 -61 208 -4 9 -3 17 2 17 16 0 162 -150
215 -222 30 -40 58 -68 66 -66 9 2 21 26 29 57 13 54 60 151 73 151 6 0 56
-108 80 -173 17 -49 41 -31 56 42 20 95 41 155 97 266 51 103 64 125 77 125 4
0 30 -45 59 -100z"/>
<path d="M1736 1294 c-54 -55 -24 -156 50 -170 100 -19 165 96 95 167 -40 40
-106 41 -145 3z"/>
<path d="M5430 1795 c0 -10 10 -15 30 -15 l30 0 0 -255 0 -255 -25 -6 c-14 -3
-25 -12 -25 -20 0 -11 24 -14 120 -14 97 0 120 3 120 14 0 8 -10 16 -22 18
l-23 3 -3 273 -2 272 -100 0 c-82 0 -100 -3 -100 -15z"/>
<path d="M5929 1770 c-135 -24 -209 -121 -209 -274 0 -119 40 -196 125 -243
44 -24 61 -27 135 -27 49 1 96 6 110 14 51 26 110 96 110 130 0 26 -39 8 -57
-27 -26 -50 -61 -74 -117 -80 -57 -7 -102 11 -122 48 -27 52 -39 169 -26 258
14 96 32 135 72 156 84 43 190 -12 190 -100 0 -18 5 -25 20 -25 16 0 20 7 20
33 0 17 3 56 6 85 6 43 4 52 -9 52 -9 0 -20 -8 -25 -17 -9 -15 -12 -15 -43 0
-44 20 -121 28 -180 17z"/>
<path d="M3490 1751 c0 -17 6 -21 35 -21 l35 0 -2 -232 -3 -233 -32 -3 c-21
-2 -33 -9 -33 -18 0 -11 25 -14 140 -14 115 0 140 3 140 14 0 9 -12 16 -27 18
l-28 3 -3 108 -3 107 29 0 c40 0 60 -26 67 -90 15 -126 43 -160 132 -160 47 0
59 4 84 29 32 33 36 46 14 55 -9 3 -19 -3 -25 -14 -13 -24 -36 -26 -44 -4 -3
9 -6 34 -6 57 0 54 -29 101 -77 126 l-38 19 43 17 c118 48 126 185 13 233 -26
10 -88 16 -223 20 -187 5 -188 5 -188 -17z m316 -44 c23 -20 28 -32 28 -75 1
-70 -26 -106 -82 -110 l-42 -3 0 105 0 106 34 0 c22 0 45 -9 62 -23z"/>
<path d="M4175 1591 c-70 -32 -105 -90 -105 -176 0 -132 96 -208 239 -190 110
14 151 47 172 139 24 107 -15 194 -103 230 -51 22 -153 20 -203 -3z m152 -48
c11 -28 14 -64 11 -145 -3 -94 -6 -110 -25 -129 -29 -30 -67 -19 -82 22 -14
41 -14 209 0 246 12 33 26 43 57 43 17 0 27 -9 39 -37z"/>
<path d="M5076 1600 c-93 -28 -86 -130 9 -130 29 0 31 2 27 30 -6 39 21 80 52
80 36 0 47 -22 44 -87 l-3 -58 -62 -7 c-75 -8 -118 -29 -138 -68 -19 -36 -19
-53 0 -90 29 -57 135 -64 195 -13 l31 25 24 -26 c20 -21 33 -26 74 -26 50 0
70 11 92 52 12 22 6 48 -11 48 -6 0 -15 -12 -20 -26 -6 -14 -16 -24 -23 -22
-8 3 -13 44 -17 135 -5 142 -11 156 -67 180 -36 14 -161 16 -207 3z"/>
<path d="M6323 1604 c-31 -7 -73 -49 -73 -74 0 -31 35 -60 74 -60 32 0 33 1
32 39 -1 44 17 71 48 71 36 0 46 -20 46 -87 l0 -63 -41 0 c-91 0 -161 -41
-174 -101 -20 -92 136 -145 209 -72 l27 26 27 -26 c22 -21 38 -27 71 -27 53 0
77 12 97 52 13 25 14 32 2 39 -19 12 -28 11 -28 -5 0 -7 -7 -19 -16 -27 -26
-22 -34 7 -34 137 l0 120 -30 29 c-29 27 -36 29 -123 31 -50 1 -102 0 -114 -2z"/>
<path d="M6771 1593 c-42 -21 -71 -67 -71 -114 0 -53 39 -90 123 -118 64 -22
97 -42 97 -61 0 -20 -34 -40 -66 -40 -51 0 -91 24 -105 65 -21 58 -43 42 -47
-33 -3 -63 8 -78 35 -51 9 9 19 9 40 1 86 -33 186 -20 228 29 33 40 40 70 25
113 -13 40 -49 65 -130 91 -68 22 -80 31 -80 61 0 58 112 47 140 -13 22 -47
50 -44 50 5 0 20 3 47 6 60 7 26 -20 32 -34 7 -7 -14 -11 -14 -38 0 -38 20
-130 19 -173 -2z"/>
<path d="M7180 1588 c-72 -37 -85 -64 -85 -171 0 -80 3 -96 23 -125 13 -18 38
-40 55 -49 40 -20 159 -23 205 -4 34 14 85 77 76 93 -10 16 -31 8 -44 -18 -29
-53 -120 -73 -155 -34 -11 13 -20 41 -23 75 l-4 54 113 3 114 3 3 45 c3 54
-22 101 -70 130 -48 29 -149 28 -208 -2z"/>
<path d="M7594 1596 c-44 -19 -74 -66 -74 -114 0 -58 36 -98 108 -118 75 -21
102 -39 102 -68 0 -67 -152 -36 -167 34 -4 21 -11 30 -24 30 -17 0 -19 -8 -19
-65 0 -49 3 -65 14 -65 8 0 16 5 18 12 3 9 13 9 38 -2 43 -18 157 -18 190 -1
53 28 60 41 60 107 0 78 -13 93 -110 124 -75 24 -104 47 -94 74 19 49 116 35
143 -21 9 -18 24 -33 34 -33 14 0 17 9 17 44 0 24 3 51 6 60 4 12 0 16 -15 16
-12 0 -21 -6 -21 -15 0 -18 -8 -18 -40 0 -32 18 -125 18 -166 1z"/>
<path d="M4520 1586 c0 -7 8 -16 18 -18 11 -3 52 -72 110 -185 90 -177 92
-181 83 -227 -10 -54 -35 -86 -66 -86 -33 0 -48 24 -43 70 4 44 -2 47 -49 29
-33 -12 -43 -26 -43 -60 0 -57 93 -95 163 -65 48 19 66 51 81 138 15 81 19 91
101 266 43 91 63 122 76 122 11 0 19 7 19 15 0 12 -14 15 -65 15 -51 0 -65 -3
-65 -15 0 -8 9 -15 20 -15 11 0 20 -7 20 -15 0 -17 -72 -165 -80 -165 -8 0
-90 154 -90 169 0 6 9 11 20 11 11 0 20 7 20 15 0 12 -19 15 -115 15 -91 0
-115 -3 -115 -14z"/>
</g>
</svg>
